# Blender 5.0.1
# www.blender.org
mtllib CocofishBonker.mtl
o CocofishBonker
v 0.000000 0.449284 -0.000000
v 0.212662 0.374611 0.154505
v -0.081228 0.374612 0.249997
v 0.354290 -0.031618 0.404509
v 0.535926 -0.031618 0.154507
v 0.404492 -0.294486 0.249999
v -0.262865 0.374611 -0.000000
v -0.081228 0.374612 -0.249998
v 0.212662 0.374611 -0.154506
v 0.535926 -0.031618 -0.154507
v 0.354290 -0.031618 -0.404509
v 0.404492 -0.294486 -0.249998
v -0.138194 0.172895 0.425324
v 0.131435 0.212154 0.404506
v 0.000000 -0.050715 0.500000
v -0.447213 0.172892 -0.000000
v -0.344095 0.212153 0.249998
v -0.475529 -0.050715 0.154507
v -0.138194 0.172894 -0.425324
v -0.344095 0.212152 -0.249999
v -0.293893 -0.050716 -0.404509
v 0.507610 -0.255226 0.000000
v 0.422201 0.191992 -0.262863
v -0.293893 -0.050715 0.404509
v -0.475529 -0.050716 -0.154507
v 0.000000 -0.050716 -0.500000
v 0.422201 0.191992 0.262863
v 0.138194 -0.274325 0.425325
v 0.344095 -0.313583 0.249999
v 0.081228 -0.476042 0.249998
v -0.361804 -0.274325 0.262863
v -0.131435 -0.313584 0.404506
v -0.212662 -0.476043 0.154506
v -0.361804 -0.274325 -0.262862
v -0.425324 -0.313583 0.000000
v -0.212662 -0.476043 -0.154505
v 0.138194 -0.274326 -0.425324
v -0.131435 -0.313584 -0.404506
v 0.081228 -0.476043 -0.249997
v 0.447213 -0.274323 0.000000
v 0.344095 -0.313584 -0.249998
v 0.262865 -0.476041 0.000000
v 0.000000 -0.550716 0.000000
v 0.191831 0.231251 -0.404506
v 0.485721 0.231250 -0.000000
v 0.293893 -0.050716 -0.404509
v 0.293893 -0.050715 0.404509
v 0.273059 0.393710 0.154505
v 0.212662 0.374611 -0.154506
v 0.212662 0.374611 0.154505
v 0.131435 0.212153 -0.404506
v 0.447213 -0.274323 0.000000
v 0.344095 -0.313584 -0.249998
v 0.131435 0.212154 0.404506
v 0.131435 0.212153 -0.404506
v 0.293893 -0.050716 -0.404509
v 0.344095 -0.313583 0.249999
v 0.293893 -0.050715 0.404509
v 0.191831 0.231251 0.404506
v 0.273059 0.393710 -0.154506
v -0.650000 -0.062500 -0.050000
v -0.650000 0.062500 -0.050000
v -0.250000 0.125000 -0.050000
v -0.250000 -0.125000 -0.050000
v -0.250000 0.125000 0.050000
v -0.250000 -0.125000 0.050000
v -0.650000 -0.062500 0.050000
v -0.650000 0.062500 0.050000
v -0.700000 -0.062500 0.000000
v -0.700000 0.062500 -0.000000
v -0.826777 -0.125000 0.226777
v -0.826777 0.125000 0.226776
v -0.876777 0.125000 0.176776
v -0.876777 -0.125000 0.176777
v -0.826777 0.125000 -0.226777
v -0.826777 -0.125000 -0.226776
v -0.876777 -0.125000 -0.176776
v -0.876777 0.125000 -0.176777
v 0.000000 -0.125000 0.450000
v 0.090450 -0.055902 0.515715
v -0.034548 -0.055902 0.556330
v 0.090450 -0.055902 0.384285
v -0.111803 -0.055902 0.450000
v -0.034548 -0.055902 0.343670
v 0.111803 0.055902 0.450000
v 0.034548 0.055902 0.556330
v -0.090450 0.055902 0.515715
v -0.090450 0.055902 0.384285
v 0.034548 0.055902 0.343670
v 0.000000 0.125000 0.450000
v 0.000000 -0.125000 -0.450000
v 0.090450 -0.055902 -0.384285
v -0.034548 -0.055902 -0.343670
v 0.090450 -0.055902 -0.515715
v -0.111803 -0.055902 -0.450000
v -0.034548 -0.055902 -0.556330
v 0.111803 0.055902 -0.450000
v 0.034548 0.055902 -0.343670
v -0.090450 0.055902 -0.384285
v -0.090450 0.055902 -0.515715
v 0.034548 0.055902 -0.556330
v 0.000000 0.125000 -0.450000
vn 0.1024 0.9435 0.3151
vn 0.7947 -0.1876 0.5773
vn -0.2680 0.9435 0.1947
vn -0.2680 0.9435 -0.1947
vn 0.1024 0.9435 -0.3151
vn 0.7947 -0.1876 -0.5773
vn 0.0247 0.3304 0.9435
vn -0.8897 0.3304 0.3151
vn -0.5746 0.3304 -0.7488
vn 0.8897 -0.3304 -0.3151
vn 0.8026 0.1256 -0.5831
vn -0.3066 0.1256 0.9435
vn -0.9921 0.1256 -0.0000
vn -0.3066 0.1256 -0.9435
vn 0.8026 0.1256 0.5831
vn 0.4089 -0.6617 0.6284
vn -0.4713 -0.6617 0.5831
vn -0.7002 -0.6617 -0.2680
vn 0.0385 -0.6617 -0.7488
vn 0.7240 -0.6617 -0.1947
vn 0.2680 -0.9435 -0.1947
vn 0.4911 -0.7947 -0.3568
vn 0.4089 -0.6617 -0.6284
vn -0.1024 -0.9435 -0.3151
vn -0.1876 -0.7947 -0.5773
vn -0.4713 -0.6617 -0.5831
vn -0.3313 -0.9435 -0.0000
vn -0.6071 -0.7947 -0.0000
vn -0.7002 -0.6617 0.2680
vn -0.1024 -0.9435 0.3151
vn -0.1876 -0.7947 0.5773
vn 0.0385 -0.6617 0.7488
vn 0.2680 -0.9435 0.1947
vn 0.4911 -0.7947 0.3568
vn 0.7240 -0.6617 0.1947
vn 0.5346 0.3304 -0.7779
vn 0.9050 0.3304 0.2680
vn 0.5746 -0.3304 -0.7488
vn -0.0247 -0.3304 -0.9435
vn -0.3035 -0.1876 -0.9342
vn -0.5346 -0.3304 -0.7779
vn -0.9050 -0.3304 -0.2680
vn -0.9822 -0.1876 -0.0000
vn -0.9050 -0.3304 0.2680
vn -0.5346 -0.3304 0.7779
vn -0.3035 -0.1876 0.9342
vn -0.0247 -0.3304 0.9435
vn 0.5746 -0.3304 0.7488
vn 0.7002 0.6617 0.2680
vn -0.0000 -0.0000 -0.0000
vn 0.3066 -0.1256 -0.9435
vn 0.3035 0.1876 -0.9342
vn 0.0247 0.3304 -0.9435
vn -0.8026 -0.1256 -0.5831
vn -0.7947 0.1876 -0.5773
vn -0.8897 0.3304 -0.3151
vn -0.8026 -0.1256 0.5831
vn -0.7947 0.1876 0.5773
vn -0.5746 0.3304 0.7488
vn 0.3066 -0.1256 0.9435
vn 0.3035 0.1876 0.9342
vn -0.0000 -0.0000 1.0000
vn 0.1876 0.7947 -0.5773
vn -0.0385 0.6617 -0.7488
vn -0.4089 0.6617 -0.6284
vn -0.4911 0.7947 -0.3568
vn -0.7240 0.6617 -0.1947
vn -0.7240 0.6617 0.1947
vn -0.4911 0.7947 0.3568
vn -0.4089 0.6617 0.6284
vn 0.3313 0.9435 -0.0000
vn -0.0385 0.6617 0.7488
vn 0.1876 0.7947 0.5773
vn 0.3014 -0.9532 0.0254
vn 0.1515 -0.4792 0.8645
vn -0.0000 -0.0000 -1.0000
vn 0.3014 -0.9532 -0.0254
vn 0.1515 -0.4792 -0.8645
vn -0.2673 0.8454 0.4625
vn -0.2673 0.8454 -0.4625
vn -0.3015 0.9535 -0.0000
vn 0.8897 -0.3304 0.3151
vn 0.5346 0.3304 0.7779
vn 0.9921 -0.1256 -0.0000
vn 0.9822 0.1876 -0.0000
vn 0.9050 0.3304 -0.2680
vn 0.4713 0.6617 -0.5831
vn 0.7002 0.6617 -0.2680
vn 0.6071 0.7947 -0.0000
vn 0.4713 0.6617 0.5831
vn 1.0000 -0.0000 -0.0000
vn -0.1544 -0.9880 -0.0000
vn -0.1544 0.9880 -0.0000
vn -0.0000 -1.0000 -0.0000
vn -0.0000 1.0000 -0.0000
vn -0.7071 -0.0000 0.7071
vn 0.7071 -0.0000 0.7071
vn 0.1715 0.9701 -0.1715
vn -0.7071 -0.0000 -0.7071
vn 0.1715 -0.9701 -0.1715
vn 0.7071 -0.0000 -0.7071
vn 0.1715 -0.9701 0.1715
vn 0.1715 0.9701 0.1715
vn 0.1876 -0.7947 0.5774
vn 0.6071 -0.7947 -0.0000
vn -0.4911 -0.7947 0.3568
vn -0.4911 -0.7947 -0.3568
vn 0.1876 -0.7947 -0.5774
vn 0.9822 -0.1876 -0.0000
vn 0.3035 -0.1876 0.9342
vn -0.7946 -0.1876 0.5774
vn -0.7946 -0.1876 -0.5774
vn 0.3035 -0.1876 -0.9342
vn 0.7946 0.1876 0.5774
vn -0.3035 0.1876 0.9342
vn -0.9822 0.1876 -0.0000
vn -0.3035 0.1876 -0.9342
vn 0.7946 0.1876 -0.5774
vn 0.4911 0.7947 0.3568
vn -0.1876 0.7947 0.5774
vn -0.6071 0.7947 -0.0000
vn -0.1876 0.7947 -0.5774
vn 0.4911 0.7947 -0.3568
vt 0.244416 0.446973
vt 0.283043 0.390626
vt 0.205789 0.390626
vt 0.482146 0.921193
vt 0.433673 0.861038
vt 0.405814 0.933095
vt 0.310902 0.462681
vt 0.253741 0.514649
vt 0.177931 0.462680
vt 0.235091 0.514649
vt 0.328561 0.933095
vt 0.300702 0.861038
vt 0.252229 0.921193
vt 0.476147 0.544870
vt 0.442099 0.485640
vt 0.408627 0.555268
vt 0.117188 0.920128
vt 0.078560 0.863779
vt 0.050701 0.935837
vt 0.070728 0.601931
vt 0.027765 0.548814
vt 0.005691 0.622848
vt 0.367188 0.876746
vt 0.300702 0.861038
vt 0.299077 0.994722
vt 0.328561 0.933095
vt 0.252229 0.944998
vt 0.519110 0.491752
vt 0.442099 0.485641
vt 0.155814 0.863780
vt 0.078561 0.863780
vt 0.104776 0.542702
vt 0.027765 0.548814
vt 0.452663 0.982819
vt 0.487004 0.802035
vt 0.498975 0.734776
vt 0.428586 0.766616
vt 0.618290 0.765680
vt 0.573426 0.714160
vt 0.554056 0.788946
vt 0.223178 0.791595
vt 0.252665 0.729970
vt 0.176333 0.741870
vt 0.359403 0.791595
vt 0.329918 0.729970
vt 0.291291 0.796875
vt 0.067050 0.781250
vt 0.055081 0.713991
vt 0.000000 0.768159
vt 0.357777 0.657915
vt 0.291291 0.673623
vt 0.406250 0.718070
vt 0.329917 0.729970
vt 0.376762 0.779695
vt 0.252664 0.729970
vt 0.291291 0.796874
vt 0.291292 0.673622
vt 0.224805 0.657915
vt 0.176332 0.718069
vt 0.702254 0.709278
vt 0.625000 0.709278
vt 0.663628 0.765625
vt 0.291290 0.673621
vt 0.281965 0.605946
vt 0.498975 0.734776
vt 0.554056 0.788946
vt 0.300616 0.605947
vt 0.498974 0.734776
vt 0.436207 0.689738
vt 0.125468 0.745832
vt 0.259473 0.569878
vt 0.203125 0.531250
vt 0.203125 0.608504
vt 0.435298 0.994722
vt 0.367188 1.000000
vt 0.212599 0.375000
vt 0.212599 0.297745
vt 0.156250 0.336373
vt 0.104776 0.542702
vt 0.147542 0.489425
vt 0.082429 0.468750
vt 0.060978 0.479063
vt 0.343750 0.578125
vt 0.343750 0.500871
vt 0.287402 0.539497
vt 0.185298 0.802153
vt 0.117188 0.796875
vt 0.117188 0.796875
vt 0.117187 0.796875
vt 0.049077 0.802153
vt 0.616826 0.833982
vt 0.554057 0.788946
vt 0.485897 0.422002
vt 0.485897 0.422002
vt 0.417581 0.421875
vt 0.432901 0.843750
vt 0.428585 0.766616
vt 0.685300 0.927153
vt 0.617188 0.921875
vt 0.655814 0.988778
vt 0.000000 0.921875
vt 0.000000 1.000000
vt 0.181809 0.548526
vt 0.147541 0.489426
vt 0.138248 0.612330
vt 0.104776 0.542702
vt 0.232147 0.875682
vt 0.202661 0.814055
vt 0.155815 0.863780
vt 0.183674 0.935837
vt 0.155815 0.863779
vt 0.078560 0.863780
vt 0.031714 0.814055
vt 0.002228 0.875682
vt 0.541184 0.565787
vt 0.519110 0.491753
vt 0.442099 0.485640
vt 0.399334 0.432365
vt 0.365066 0.491465
vt 0.000000 0.937500
vt 0.062500 1.000000
vt 0.046875 1.000000
vt 0.160593 0.686282
vt 0.138248 0.612330
vt 0.085377 0.668658
vt 0.070727 0.601931
vt 0.013771 0.639658
vt 0.171875 0.375000
vt 0.094621 0.375000
vt 0.133249 0.441904
vt 0.126511 0.987805
vt 0.117187 0.920128
vt 0.107863 0.987805
vt 0.050701 0.935837
vt 0.359375 0.402526
vt 0.461497 0.611597
vt 0.533102 0.582597
vt 0.000000 0.953125
vt 0.205789 0.390625
vt 0.177930 0.462680
vt 0.408626 0.555269
vt 0.408626 0.555268
vt 0.386281 0.629221
vt 0.549778 0.419394
vt 0.534678 0.424169
vt 0.575293 0.489887
vt 0.590392 0.485112
vt 0.618001 0.498637
vt 0.616733 0.514423
vt 0.676850 0.546875
vt 0.678118 0.531089
vt 0.534082 0.343750
vt 0.518983 0.348527
vt 0.534678 0.424169
vt 0.003358 0.453862
vt 0.018457 0.458637
vt 0.059072 0.392919
vt 0.043972 0.388144
vt 0.741374 0.524429
vt 0.742642 0.508643
vt 0.059072 0.392919
vt 0.074767 0.317277
vt 0.059668 0.312500
vt 0.562759 0.562500
vt 0.562757 0.578336
vt 0.633248 0.609949
vt 0.633248 0.594113
vt 0.710501 0.594113
vt 0.710501 0.609949
vt 0.780993 0.578340
vt 0.780992 0.562504
vt 0.633248 0.609951
vt 0.710501 0.609951
vt 0.433673 0.861038
vt 0.367187 0.876746
vt 0.312500 0.312500
vt 0.235246 0.312500
vt 0.273874 0.368848
vt 0.367188 0.876747
vt 0.367188 1.000000
vt 0.328561 0.933095
vt 0.578562 0.988778
vt 0.549075 0.927152
vt 0.502230 0.976877
vt 0.549076 0.927153
vt 0.578561 0.988780
vt 0.655814 0.988780
vt 0.655813 0.988780
vt 0.732145 0.976878
vt 0.681007 0.359375
vt 0.685831 0.391000
vt 0.589442 0.421875
vt 0.579794 0.359375
vt 0.515625 0.625000
vt 0.515625 0.687500
vt 0.484375 0.687500
vt 0.484375 0.625000
vt 0.564359 0.873679
vt 0.665571 0.873679
vt 0.665571 0.898679
vt 0.564359 0.898679
vt 0.696821 0.687500
vt 0.595609 0.687500
vt 0.595609 0.662500
vt 0.696821 0.662500
vt 0.473058 0.344499
vt 0.482706 0.406250
vt 0.381493 0.406250
vt 0.376669 0.375375
vt 0.551859 0.886179
vt 0.583109 0.675000
vt 0.015625 0.328125
vt 0.015625 0.390625
vt 0.000000 0.390625
vt 0.000000 0.328125
vt 0.703125 0.828125
vt 0.640625 0.843750
vt 0.640625 0.781250
vt 0.703125 0.796875
vt 0.583108 0.675000
vt 0.537554 0.629446
vt 0.550054 0.616946
vt 0.328125 0.296875
vt 0.390625 0.281250
vt 0.390625 0.343750
vt 0.328125 0.328125
vt 0.015625 0.937500
vt 0.015625 1.000000
vt 0.093750 0.359375
vt 0.093750 0.296875
vt 0.109375 0.296875
vt 0.109375 0.359375
vt 0.656250 0.437500
vt 0.718750 0.421875
vt 0.718750 0.484375
vt 0.656250 0.468750
vt 0.551858 0.886180
vt 0.506304 0.840625
vt 0.518804 0.828125
vt 0.625000 0.328125
vt 0.562500 0.343750
vt 0.562500 0.281250
vt 0.625000 0.296875
vt 0.234375 0.937500
vt 0.234375 1.000000
vt 0.218750 1.000000
vt 0.218750 0.937500
vt 0.717141 0.750000
vt 0.750000 0.750000
vt 0.733571 0.778455
vt 0.751398 0.407857
vt 0.751398 0.375000
vt 0.779852 0.391429
vt 0.484375 0.234375
vt 0.512830 0.250804
vt 0.484375 0.267234
vt 0.248391 0.812500
vt 0.281250 0.812500
vt 0.264820 0.840957
vt 0.062500 0.250000
vt 0.090956 0.266430
vt 0.062500 0.282858
vt 0.532648 0.235177
vt 0.561102 0.218750
vt 0.561102 0.251608
vt 0.721545 0.235180
vt 0.750000 0.218750
vt 0.750000 0.251607
vt 0.515625 0.297679
vt 0.544080 0.281250
vt 0.544080 0.314109
vt 0.467141 0.325332
vt 0.483571 0.296875
vt 0.500000 0.325332
vt 0.687500 0.340955
vt 0.703929 0.312500
vt 0.720359 0.340955
vt 0.721545 0.701516
vt 0.750000 0.717946
vt 0.721545 0.734375
vt 0.750000 0.967143
vt 0.778455 0.983570
vt 0.750000 1.000000
vt 0.579523 0.232767
vt 0.607977 0.249198
vt 0.579523 0.265625
vt 0.123391 0.268420
vt 0.156250 0.268420
vt 0.139821 0.296875
vt 0.421875 0.643418
vt 0.454734 0.643418
vt 0.438304 0.671875
vt 0.315295 0.249196
vt 0.343750 0.232766
vt 0.343750 0.265625
vt 0.687500 0.296875
vt 0.703929 0.268420
vt 0.720359 0.296875
vt 0.048273 0.217946
vt 0.076727 0.201518
vt 0.076727 0.234375
vt 0.705919 0.389820
vt 0.734375 0.373392
vt 0.734375 0.406250
vt 0.296875 0.843750
vt 0.313305 0.815293
vt 0.329734 0.843750
vt 0.435892 0.250000
vt 0.468750 0.250000
vt 0.452322 0.278456
vt 0.751398 0.345357
vt 0.751398 0.312500
vt 0.779852 0.328929
vt 0.000000 0.671875
vt 0.028457 0.688304
vt 0.000000 0.704734
vt 0.639016 0.250000
vt 0.671875 0.250000
vt 0.655446 0.278455
vt 0.718750 0.812500
vt 0.747205 0.828929
vt 0.718750 0.845359
vt 0.360773 0.235177
vt 0.389227 0.218750
vt 0.389227 0.251608
vt 0.221545 0.266429
vt 0.250000 0.250000
vt 0.250000 0.282859
vt 0.640625 0.313305
vt 0.669082 0.296875
vt 0.669082 0.329734
vt 0.701516 0.903455
vt 0.717946 0.875000
vt 0.734375 0.903455
vt 0.750000 0.934705
vt 0.766430 0.906250
vt 0.782857 0.934705
vt 0.409043 0.295266
vt 0.437500 0.311695
vt 0.409043 0.328125
vt 0.265625 0.264016
vt 0.294080 0.280446
vt 0.265625 0.296875
vt 0.735773 0.451517
vt 0.764227 0.467948
vt 0.735773 0.484375
vt 0.107768 0.221545
vt 0.140625 0.221545
vt 0.124195 0.250000
vt 0.000000 0.284045
vt 0.032859 0.284045
vt 0.016429 0.312500
vt 0.377793 0.827321
vt 0.406250 0.810891
vt 0.406250 0.843750
vt 0.718750 0.671875
vt 0.735178 0.643419
vt 0.751608 0.671875
vt 0.751398 0.874196
vt 0.779852 0.857768
vt 0.779852 0.890625
vt 0.174670 0.264821
vt 0.203125 0.248391
vt 0.203125 0.281250
vt 0.000000 0.265625
vt 0.016429 0.237170
vt 0.032859 0.265625
s 1
usemtl m_72260f81-a3ec-30b8-1dcb-6829651cc77b
f 1/1/1 3/2/1 2/3/1
f 4/4/2 6/5/2 5/6/2
f 1/1/3 7/7/3 3/2/3
f 1/1/4 8/8/4 7/7/4
f 1/1/5 9/9/5 8/10/5
f 10/11/6 12/12/6 11/13/6
f 13/14/7 15/15/7 14/16/7
f 16/17/8 18/18/8 17/19/8
f 19/20/9 21/21/9 20/22/9
f 10/11/10 22/23/10 12/24/10
f 23/25/11 10/26/11 11/27/11
f 13/14/12 24/28/12 15/29/12
f 16/17/13 25/30/13 18/31/13
f 19/20/14 26/32/14 21/33/14
f 27/34/15 4/4/15 5/6/15
f 28/35/16 30/36/16 29/37/16
f 31/38/17 33/39/17 32/40/17
f 34/41/18 36/42/18 35/43/18
f 37/44/19 39/45/19 38/46/19
f 40/47/20 42/48/20 41/49/20
f 42/50/21 43/51/21 39/45/21
f 42/50/22 39/45/22 41/52/22
f 41/52/23 39/53/23 37/54/23
f 39/45/24 43/51/24 36/55/24
f 39/45/25 36/55/25 38/56/25
f 38/56/26 36/42/26 34/41/26
f 36/55/27 43/57/27 33/58/27
f 36/55/28 33/58/28 35/59/28
f 35/60/29 33/61/29 31/62/29
f 33/58/30 43/63/30 30/64/30
f 33/39/31 30/65/31 32/66/31
f 32/66/32 30/36/32 28/35/32
f 30/67/33 43/51/33 42/50/33
f 30/68/34 42/69/34 29/37/34
f 29/70/35 42/48/35 40/47/35
f 23/71/36 11/72/36 44/73/36
f 27/74/37 5/6/37 45/75/37
f 46/76/38 41/77/38 37/78/38
f 26/79/39 37/80/39 38/81/39
f 26/32/40 38/82/40 21/33/40
f 21/83/41 38/84/41 34/85/41
f 25/30/42 34/86/42 35/87/42
f 25/30/43 35/88/43 18/31/43
f 18/31/44 35/89/44 31/90/44
f 24/91/45 31/38/45 32/92/45
f 24/28/46 32/93/46 15/29/46
f 15/29/47 32/94/47 28/95/47
f 47/96/48 28/35/48 29/97/48
f 27/98/49 45/99/49 48/100/49
s 0
f 2/101/50 50/101/50 49/102/50 9/102/50
s 1
f 46/103/51 37/104/51 26/79/51
f 46/103/52 26/79/52 51/105/52
f 51/105/53 26/106/53 19/20/53
f 21/107/54 34/108/54 25/109/54
f 21/107/55 25/109/55 20/110/55
f 20/110/56 25/111/56 16/17/56
f 18/112/57 31/113/57 24/114/57
f 18/112/58 24/114/58 17/19/58
f 17/115/59 24/116/59 13/14/59
f 15/117/60 28/118/60 47/119/60
f 15/117/61 47/119/61 14/16/61
s 0
f 41/102/62 53/102/62 52/120/62 40/120/62
f 14/102/62 54/102/62 2/121/62 50/121/62
f 9/120/62 49/120/62 51/102/62 55/102/62
f 51/102/62 55/102/62 56/122/62 46/122/62
f 40/121/62 52/121/62 57/102/62 29/102/62
s 1
f 9/123/63 51/124/63 8/125/63
f 8/125/64 51/105/64 19/126/64
f 8/125/65 19/126/65 20/127/65
f 8/128/66 20/129/66 7/130/66
f 7/131/67 20/110/67 16/132/67
f 7/133/68 16/17/68 17/134/68
f 7/7/69 17/135/69 3/2/69
f 3/136/70 17/137/70 13/14/70
s 0
f 47/122/62 58/122/62 54/102/62 14/102/62
f 46/102/62 56/102/62 53/138/62 41/138/62
s 1
f 2/139/71 9/140/71 1/1/71
f 3/136/72 13/14/72 14/141/72
f 3/136/73 14/142/73 2/143/73
s 0
f 29/122/62 57/122/62 47/102/62 58/102/62
s 1
f 58/144/62 4/145/62 59/146/62 54/147/62
f 53/148/74 12/149/74 22/150/74 52/151/74
f 57/152/75 6/153/75 4/154/75 58/144/75
f 55/155/76 44/156/76 11/157/76 56/158/76
f 52/151/77 22/150/77 6/159/77 57/160/77
f 56/158/78 11/161/78 12/162/78 53/163/78
f 54/164/79 59/165/79 48/166/79 50/167/79
f 49/168/80 60/169/80 44/170/80 55/171/80
f 50/167/81 48/172/81 60/173/81 49/168/81
f 5/6/82 6/174/82 22/175/82
f 59/176/83 4/177/83 27/178/83
f 5/6/84 22/179/84 10/11/84
f 5/6/85 10/11/85 45/180/85
f 45/180/86 10/181/86 23/25/86
f 60/182/87 23/183/87 44/184/87
f 45/99/88 23/185/88 60/182/88
f 45/99/89 60/186/89 48/187/89
f 48/188/90 59/189/90 27/98/90
f 61/190/76 62/191/76 63/192/76 64/193/76
f 64/194/91 63/195/91 65/196/91 66/197/91
f 61/198/92 64/199/92 66/200/92 67/201/92
f 63/202/93 62/203/93 68/204/93 65/205/93
f 66/206/62 65/207/62 68/208/62 67/209/62
f 61/198/94 67/201/94 69/210/94
f 68/204/95 62/203/95 70/211/95
f 71/212/96 72/213/96 73/214/96 74/215/96
f 68/216/97 72/217/97 71/218/97 67/219/97
f 70/220/98 73/221/98 72/222/98 68/204/98
f 69/223/99 74/224/99 73/225/99 70/226/99
f 67/102/100 71/120/100 74/227/100 69/228/100
f 75/229/99 76/230/99 77/231/99 78/232/99
f 61/233/101 76/234/101 75/235/101 62/236/101
f 69/237/102 77/238/102 76/239/102 61/198/102
f 70/240/96 78/241/96 77/242/96 69/243/96
f 62/244/103 75/245/103 78/246/103 70/247/103
f 79/248/104 80/249/104 81/250/104
f 80/251/105 79/252/105 82/253/105
f 79/254/106 81/255/106 83/256/106
f 79/257/107 83/258/107 84/259/107
f 79/260/108 84/261/108 82/262/108
f 80/263/109 82/264/109 85/265/109
f 81/266/110 80/267/110 86/268/110
f 83/269/111 81/270/111 87/271/111
f 84/272/112 83/273/112 88/274/112
f 82/275/113 84/276/113 89/277/113
f 80/278/114 85/279/114 86/280/114
f 81/281/115 86/282/115 87/283/115
f 83/284/116 87/285/116 88/286/116
f 84/287/117 88/288/117 89/289/117
f 82/290/118 89/291/118 85/292/118
f 86/293/119 85/294/119 90/295/119
f 87/296/120 86/297/120 90/298/120
f 88/299/121 87/300/121 90/301/121
f 89/302/122 88/303/122 90/304/122
f 85/305/123 89/306/123 90/307/123
f 91/308/104 92/309/104 93/310/104
f 92/311/105 91/312/105 94/313/105
f 91/314/106 93/315/106 95/316/106
f 91/317/107 95/318/107 96/319/107
f 91/320/108 96/321/108 94/322/108
f 92/323/109 94/324/109 97/325/109
f 93/326/110 92/327/110 98/328/110
f 95/329/111 93/330/111 99/331/111
f 96/332/112 95/333/112 100/334/112
f 94/335/113 96/336/113 101/337/113
f 92/338/114 97/339/114 98/340/114
f 93/341/115 98/342/115 99/343/115
f 95/344/116 99/345/116 100/346/116
f 96/347/117 100/348/117 101/349/117
f 94/350/118 101/351/118 97/352/118
f 98/353/119 97/354/119 102/355/119
f 99/356/120 98/357/120 102/358/120
f 100/359/121 99/360/121 102/361/121
f 101/362/122 100/363/122 102/364/122
f 97/365/123 101/366/123 102/367/123
